<svg width="17" height="17" viewBox="0 0 17 17" fill="none" xmlns="http://www.w3.org/2000/svg">
<g id="building-03">
<path id="Icon" d="M5.50004 4.68156H7.33337M5.50004 7.34823H7.33337M5.50004 10.0149H7.33337M9.66671 4.68156H11.5M9.66671 7.34823H11.5M9.66671 10.0149H11.5M13.8334 14.0149V4.14823C13.8334 3.40149 13.8334 3.02812 13.688 2.74291C13.5602 2.49202 13.3562 2.28805 13.1054 2.16022C12.8201 2.01489 12.4468 2.01489 11.7 2.01489H5.30004C4.5533 2.01489 4.17994 2.01489 3.89472 2.16022C3.64384 2.28805 3.43986 2.49202 3.31203 2.74291C3.16671 3.02812 3.16671 3.40149 3.16671 4.14823V14.0149M15.1667 14.0149H1.83337" stroke="#C8C8C9" stroke-linecap="round" stroke-linejoin="round"/>
</g>
</svg>
