<svg width="17" height="17" viewBox="0 0 17 17" fill="none" xmlns="http://www.w3.org/2000/svg">
<g id="bus" clip-path="url(#clip0_1449_3292)">
<path id="Icon" d="M6.16667 12.6815V14.1481C6.16667 14.3348 6.16667 14.4282 6.13034 14.4995C6.09838 14.5622 6.04738 14.6132 5.98466 14.6451C5.91336 14.6815 5.82002 14.6815 5.63333 14.6815H4.36667C4.17998 14.6815 4.08664 14.6815 4.01534 14.6451C3.95262 14.6132 3.90162 14.5622 3.86966 14.4995C3.83333 14.4282 3.83333 14.3348 3.83333 14.1481V12.6815M13.1667 12.6815V14.1481C13.1667 14.3348 13.1667 14.4282 13.1303 14.4995C13.0984 14.5622 13.0474 14.6132 12.9847 14.6451C12.9134 14.6815 12.82 14.6815 12.6333 14.6815H11.3667C11.18 14.6815 11.0866 14.6815 11.0153 14.6451C10.9526 14.6132 10.9016 14.5622 10.8697 14.4995C10.8333 14.4282 10.8333 14.3348 10.8333 14.1481V12.6815M2.5 8.01481H14.5M2.5 3.68148H14.5M4.83333 10.3481H5.83333M11.1667 10.3481H12.1667M5.7 12.6815H11.3C12.4201 12.6815 12.9802 12.6815 13.408 12.4635C13.7843 12.2717 14.0903 11.9658 14.282 11.5895C14.5 11.1616 14.5 10.6016 14.5 9.48148V4.54814C14.5 3.42804 14.5 2.86799 14.282 2.44016C14.0903 2.06384 13.7843 1.75788 13.408 1.56613C12.9802 1.34814 12.4201 1.34814 11.3 1.34814H5.7C4.5799 1.34814 4.01984 1.34814 3.59202 1.56613C3.21569 1.75788 2.90973 2.06384 2.71799 2.44016C2.5 2.86799 2.5 3.42804 2.5 4.54814V9.48148C2.5 10.6016 2.5 11.1616 2.71799 11.5895C2.90973 11.9658 3.21569 12.2717 3.59202 12.4635C4.01984 12.6815 4.5799 12.6815 5.7 12.6815Z" stroke="#C8C8C9" stroke-linecap="round" stroke-linejoin="round"/>
</g>
<defs>
<clipPath id="clip0_1449_3292">
<rect width="16" height="16" fill="white" transform="translate(0.5 0.0148926)"/>
</clipPath>
</defs>
</svg>
