<svg width="14" height="14" viewBox="0 0 14 14" fill="none" xmlns="http://www.w3.org/2000/svg">
<g id="carbon:arrival">
<path id="Vector" d="M0.875244 12.2499H13.1252V13.1249H0.875244V12.2499ZM7.52962 2.28802L8.13774 2.45427L8.57524 7.39365L11.1434 8.08052C11.3501 8.12934 11.532 8.2517 11.6552 8.42478C11.7784 8.59785 11.8344 8.80983 11.8127 9.02115C11.7877 9.17804 11.7178 9.32433 11.6115 9.44234C11.5051 9.56035 11.3668 9.64503 11.2134 9.68615C11.0699 9.7232 10.9193 9.7232 10.7759 9.68615L2.59462 7.49865C2.38474 7.44122 2.20596 7.30338 2.09704 7.11502C1.98811 6.92665 1.95783 6.70295 2.01274 6.4924L2.77837 3.64865L3.40837 3.8149L3.67524 6.08115L6.30024 6.7899L7.52962 2.28802ZM7.09212 1.32552C7.02102 1.34651 6.95641 1.38523 6.90437 1.43803C6.85233 1.49083 6.81457 1.556 6.79462 1.6274L5.68774 5.71802L4.45837 5.3899L4.23962 3.40802C4.22624 3.32811 4.19093 3.25348 4.13763 3.19246C4.08433 3.13143 4.01513 3.0864 3.93774 3.0624L2.56837 2.68615C2.49679 2.6664 2.4212 2.6664 2.34962 2.68615C2.27902 2.70674 2.21476 2.74479 2.16276 2.79679C2.11076 2.84879 2.07271 2.91305 2.05212 2.98365L1.17712 6.26052C1.11958 6.4754 1.10495 6.69951 1.13407 6.92004C1.16318 7.14057 1.23546 7.35321 1.34679 7.54579C1.45811 7.73838 1.6063 7.90714 1.78287 8.04243C1.95945 8.17772 2.16095 8.27689 2.37587 8.33427L10.5615 10.5218C10.7891 10.5859 11.0277 10.6016 11.2618 10.5679C11.4958 10.5342 11.7203 10.4519 11.9206 10.3262C12.1209 10.2005 12.2927 10.0342 12.4248 9.83805C12.5569 9.64191 12.6465 9.42027 12.6877 9.1874C12.7457 8.75998 12.6438 8.32621 12.4016 7.96932C12.1594 7.61242 11.7939 7.35757 11.3752 7.25365L9.39774 6.72427L8.98212 2.06052C8.97242 1.97429 8.93729 1.89288 8.8812 1.82666C8.8251 1.76045 8.75059 1.7124 8.66712 1.68865L7.31962 1.3124C7.24775 1.29496 7.17274 1.29496 7.10087 1.3124L7.09212 1.32552Z" fill="#9BA7B6"/>
</g>
</svg>
