<svg width="14" height="14" viewBox="0 0 14 14" fill="none" xmlns="http://www.w3.org/2000/svg">
<g id="carbon:departure">
<path id="Vector" d="M0.874579 12.2499H13.1246V13.1249H0.874579V12.2499ZM5.89708 2.25302L8.38645 5.81427L8.73645 6.3174L9.32708 6.1599L11.3046 5.63052C11.465 5.58681 11.6342 5.58681 11.7946 5.63052C11.9201 5.66217 12.0362 5.72364 12.1329 5.8097C12.2296 5.89576 12.3042 6.00389 12.3502 6.1249C12.3896 6.23036 12.4068 6.34282 12.4007 6.45524C12.3947 6.56765 12.3655 6.6776 12.3149 6.77822C12.2644 6.87883 12.1937 6.96793 12.1072 7.03995C12.0206 7.11197 11.9202 7.16536 11.8121 7.19677L3.62645 9.38427C3.48355 9.4256 3.33186 9.4256 3.18895 9.38427C3.05244 9.34467 2.9286 9.27018 2.82963 9.16815C2.73067 9.06612 2.66 8.94006 2.62458 8.8024L2.5152 8.39552L2.18708 7.16615L1.86333 5.9674L2.49333 5.79677L3.49958 7.15302L3.85395 7.62552L4.42708 7.4724L5.65208 7.14427L6.50083 6.91677L6.27333 6.0724L5.28458 2.4149L5.89708 2.25302ZM6.19458 1.3124C6.1227 1.29496 6.0477 1.29496 5.97583 1.3124L4.62395 1.67552C4.51924 1.70805 4.43056 1.7787 4.37547 1.8735C4.32037 1.96829 4.30288 2.08032 4.32645 2.1874L5.4202 6.2824L4.19083 6.61052L2.99645 5.03115C2.93966 4.95542 2.85983 4.90015 2.76895 4.87365C2.69708 4.85621 2.62208 4.85621 2.5502 4.87365L1.18958 5.2499C1.08254 5.27883 0.99047 5.34732 0.931995 5.44153C0.873519 5.53574 0.852998 5.64864 0.874579 5.7574L1.31208 7.39365L1.6402 8.61865L1.74958 9.0299C1.8264 9.31744 1.97766 9.57966 2.18811 9.79011C2.39857 10.0006 2.66078 10.1518 2.94833 10.2286C3.23504 10.3047 3.53662 10.3047 3.82333 10.2286L12.0046 8.04115C12.366 7.94862 12.6863 7.73845 12.915 7.44378C13.1437 7.1491 13.2679 6.78668 13.2679 6.41365C13.2679 6.04062 13.1437 5.67819 12.915 5.38352C12.6863 5.08884 12.366 4.87868 12.0046 4.78615C11.6948 4.70516 11.3694 4.70516 11.0596 4.78615L9.08645 5.31552L6.43083 1.49177C6.37537 1.4063 6.29181 1.34286 6.19458 1.3124Z" fill="#9BA7B6"/>
</g>
</svg>
