<svg width="16" height="17" viewBox="0 0 16 17" fill="none" xmlns="http://www.w3.org/2000/svg">
<g id="plane" clip-path="url(#clip0_1449_3289)">
<path id="Icon" d="M11.8299 1.89013C12.4731 1.22581 13.5358 1.21722 14.1896 1.87105C14.8255 2.50697 14.8374 3.53428 14.2163 4.18468L12.3638 6.12453C12.2186 6.27658 12.146 6.3526 12.1013 6.44164C12.0617 6.52046 12.0381 6.60636 12.032 6.69436C12.025 6.79376 12.0486 6.89619 12.0959 7.10104L13.2479 12.0927C13.2964 12.303 13.3206 12.4082 13.3128 12.5099C13.3059 12.5999 13.2807 12.6875 13.2389 12.7676C13.1916 12.8579 13.1153 12.9342 12.9627 13.0868L12.7156 13.334C12.3115 13.7381 12.1094 13.9402 11.9026 13.9767C11.7221 14.0087 11.5363 13.9648 11.3891 13.8555C11.2205 13.7303 11.1301 13.4592 10.9494 12.9171L9.60955 8.89757L7.37934 11.1278C7.24621 11.2609 7.17965 11.3275 7.13513 11.4059C7.09568 11.4753 7.06903 11.5513 7.05645 11.6301C7.04226 11.7191 7.05265 11.8127 7.07344 11.9998L7.19591 13.1021C7.2167 13.2892 7.2271 13.3828 7.2129 13.4718C7.20032 13.5506 7.17368 13.6266 7.13423 13.696C7.0897 13.7744 7.02314 13.841 6.89002 13.9741L6.75835 14.1058C6.44298 14.4212 6.28529 14.5788 6.11006 14.6245C5.95636 14.6646 5.79341 14.6484 5.65055 14.579C5.48768 14.4999 5.36398 14.3143 5.11658 13.9432L4.07103 12.3749C4.02683 12.3086 4.00473 12.2755 3.97908 12.2454C3.95628 12.2187 3.93142 12.1938 3.90471 12.171C3.87464 12.1454 3.84149 12.1233 3.77519 12.0791L2.20687 11.0335C1.83577 10.7861 1.65022 10.6624 1.57108 10.4995C1.50166 10.3567 1.48552 10.1937 1.52558 10.04C1.57124 9.8648 1.72893 9.70712 2.0443 9.39175L2.17597 9.26008C2.3091 9.12695 2.37566 9.06039 2.45405 9.01586C2.52349 8.97642 2.59945 8.94977 2.67832 8.93719C2.76734 8.92299 2.8609 8.93339 3.04801 8.95418L4.15027 9.07665C4.33739 9.09744 4.43094 9.10784 4.51997 9.09364C4.59884 9.08106 4.6748 9.05442 4.74424 9.01497C4.82263 8.97044 4.88919 8.90388 5.02231 8.77076L7.25253 6.54054L3.23301 5.2007C2.69086 5.01999 2.41978 4.92963 2.29459 4.76102C2.18526 4.6138 2.14141 4.42804 2.17335 4.24747C2.20993 4.04067 2.41198 3.83862 2.81607 3.43453L3.06325 3.18735C3.21585 3.03475 3.29215 2.95845 3.38254 2.91119C3.46255 2.86936 3.55022 2.84422 3.64023 2.83729C3.74194 2.82946 3.84707 2.85372 4.05735 2.90224L9.03011 4.0498C9.23674 4.09749 9.34006 4.12133 9.43981 4.11424C9.53612 4.10739 9.62979 4.0797 9.71435 4.03309C9.80193 3.98482 9.87568 3.90864 10.0232 3.75628L11.8299 1.89013Z" stroke="white" stroke-linecap="round" stroke-linejoin="round"/>
</g>
<defs>
<clipPath id="clip0_1449_3289">
<rect width="16" height="16" fill="white" transform="translate(0 0.0148926)"/>
</clipPath>
</defs>
</svg>
